<svg id="Layer_1" xmlns="http://www.w3.org/2000/svg" viewBox="0 0 265 222.9"><style>.st0{fill:#fff}.st1{fill:#003262}.st2{fill:#c7911b}</style><path class="st0" d="M17.1 160.9c.7 0 1.4.2 2 .4.6.2 1.1.6 1.6 1.2.4.6.6 1.3.6 2.4v2.1h-3.4v-2.1s-.2-.1-.7-.1h-4.5v26.9H8.6v-26.9H4.2c-.5 0-.7.1-.7.1v2.1H0v-2.1c0-1 .2-1.8.6-2.4.4-.6.9-1 1.6-1.2.6-.2 1.3-.4 2-.4s1.4-.1 2-.1h9c.5 0 1.2 0 1.9.1zm40.6 26.7c0 .5.1.7.1.7h2.1v3.4h-2.1c-1.3 0-2.2-.3-2.8-.9-.6-.6-1-1.6-1.1-2.8h-.1c-.9 1.2-2.1 2.1-3.5 2.8-1.4.6-3 .9-4.7.9-1.7 0-3.2-.3-4.7-.9-1.5-.6-2.7-1.5-3.8-2.6-1.1-1.1-2-2.4-2.6-3.8-.6-1.5-.9-3-.9-4.7V165c0-.5-.1-.7-.1-.7h-2.1v-3.4h2.1c1.1 0 1.9.2 2.5.7.6.5 1 1 1.3 1.7.3.7.4 1.4.5 2.1s.1 1.4.1 2v12.2c0 1.1.2 2.1.6 3.1.4 1 1 1.9 1.7 2.6.7.7 1.6 1.3 2.5 1.8 1 .4 2 .7 3.1.7s2.1-.2 3-.7c1-.4 1.8-1 2.5-1.8.7-.7 1.3-1.6 1.7-2.6s.6-2 .6-3.1v-12.2c0-.6 0-1.2.1-2s.2-1.5.5-2.1c.3-.7.7-1.2 1.3-1.7.6-.5 1.4-.7 2.5-.7h2.1v3.4H58s-.1.2-.1.7v20.2c-.2 1.1-.2 1.9-.2 2.4zm37.9-16.1c0 1.1-.2 2.2-.5 3.3-.3 1-.8 2-1.4 2.8-.6.9-1.3 1.6-2.2 2.3-.8.7-1.8 1.2-2.8 1.6l2.1 3.6c.5.9 1.1 1.7 1.5 2.3.5.6 1 .9 1.5.9h1.8v3.4h-2.1c-.8 0-1.6-.1-2.2-.4s-1.2-.6-1.6-1c-.5-.4-.9-.9-1.3-1.4-.4-.5-.7-1-1.1-1.5l-3-5.1h-3.6c-.5 0-1-.1-1.5-.2s-.9-.4-1.4-.7h-.1l.1 2.3v1.5c0 .6 0 1.2-.1 2 0 .7-.2 1.5-.5 2.1-.3.7-.7 1.2-1.3 1.7-.6.5-1.4.7-2.5.7h-2.1v-3.4h2.1c.1 0 .1-.2.1-.7v-22.7c0-.5-.1-.7-.1-.7h-2.1v-3.4h2.1c.6 0 1.2.1 1.8.4.6.3.9.7 1.1 1.3h.1c.4-.6 1-1 1.6-1.3.7-.3 1.3-.4 2-.4h4.4c1.5 0 2.9.3 4.3.8 1.3.5 2.5 1.3 3.5 2.3 1 1 1.8 2.1 2.4 3.4.7 1.3 1 2.7 1 4.2zm-11 6.8c.9 0 1.8-.2 2.7-.5.8-.4 1.5-.8 2.2-1.5.6-.6 1.1-1.3 1.5-2.2.4-.8.5-1.7.5-2.6 0-.9-.2-1.8-.5-2.6-.4-.8-.8-1.5-1.5-2.2-.6-.6-1.3-1.1-2.2-1.5-.8-.4-1.7-.5-2.7-.5h-4.4c-.3 0-.6.1-.9.2-.3.1-.5.3-.7.6-.2.2-.4.5-.5.8-.1.3-.2.6-.2 1v8.4c0 .3.1.7.2 1s.3.6.5.8c.2.2.5.4.7.6.3.1.6.2.9.2h4.4zm46.6-13.4v23.2c0 .2 0 .3.1.3h2.1v3.4h-2.1c-1 0-1.8-.2-2.4-.6-.6-.4-1.1-.9-1.5-1.4l-11.9-16.4-2.2-3.6h-.1l.1 2.9v12.9c0 .6 0 1.2-.1 1.9 0 .7-.2 1.4-.4 2-.3.6-.7 1.1-1.2 1.6-.5.4-1.3.6-2.3.6h-2.1v-3.4h2.1s.1-.2.1-.7v-22.7c0-.5-.1-.7-.1-.7h-2.1v-3.4h2.1c.5 0 1 .1 1.4.2s.7.3 1.1.4c.3.2.6.4.8.6.2.2.5.5.7.8l12.2 17.1 1.7 2.8h.1l-.1-3.1v-14.3s.2-1.5.4-2.1c.2-.7.7-1.2 1.2-1.7.6-.5 1.4-.7 2.5-.7h2.1v3.4h-2.1s0 .2-.1.7zm34.7 22.6v4.2H144v-3.4h2.1s.1-.2.1-.7v-22.7c0-.5-.1-.7-.1-.7H144v-3.4h2.1c.7 0 1.3.2 1.9.5.6.3 1.3 1.3 1.3 1.3.2-.3.4-.6.7-.8l.9-.6s.7-.3 1-.3.7-.1 1-.1h13.2v4.2h-13.2c-.3 0-.6.1-.8.2s-.5.3-.8.6-.4.5-.6.8c-.1.3-.2.6-.2.8v5.7h13.3v4.2h-13.3v7.9c0 .3.1.6.2.8.1.3.3.5.6.8s.5.4.8.6c.3.1.6.2.8.2h13zm31.3-14.5v4.2h-13.3v7.9c0 .6 0 1.2-.1 2 0 .7-.2 1.5-.5 2.1-.3.7-.7 1.2-1.3 1.7-.6.5-1.4.7-2.5.7h-2.1v-3.4h2.1s.1-.2.1-.7V165c0-.6-.1-.9-.1-.9h-2.1v-3.4h2.1c.7 0 1.3.1 1.8.4.6.3.9.7 1.1 1.4h.1c.4-.7.9-1.1 1.6-1.4.7-.3 1.3-.4 2-.4h13.2v4.2h-13.2c-.3 0-.6.1-.8.2-.3.1-.5.3-.8.5-.2.2-.4.5-.6.7-.1.3-.2.5-.2.8v5.8h13.5zm32.8 0v4.2h-13.3v7.9c0 .6 0 1.2-.1 2 0 .7-.2 1.5-.5 2.1-.3.7-.7 1.2-1.3 1.7-.6.5-1.4.7-2.5.7h-2.1v-3.4h2.1s.1-.2.1-.7V165c0-.6-.1-.9-.1-.9h-2.1v-3.4h2.1c.7 0 1.3.1 1.8.4.6.3.9.7 1.1 1.4h.1c.4-.7.9-1.1 1.6-1.4.7-.3 1.3-.4 2-.4h13.2v4.2H219c-.3 0-.6.1-.8.2-.3.1-.5.3-.8.5-.2.2-.4.5-.6.7-.1.3-.2.5-.2.8v5.8H230zm35 14.5v4.2h-22v-3.4h2.1s.1-.2.1-.7v-22.7c0-.5-.1-.7-.1-.7H243v-3.4h2.1c.7 0 1.3.2 1.9.5.6.3.9.8 1.1 1.3h.1c.2-.3.4-.6.7-.8l.9-.6s.7-.3 1-.3.7-.1 1-.1H265v4.2h-13.2c-.3 0-.6.1-.8.2s-.5.3-.8.6-.4.5-.6.8c-.1.3-.2.6-.2.8v5.7h13.3v4.2h-13.3v7.9c0 .3.1.6.2.8.1.3.3.5.6.8s.5.4.8.6c.3.1.6.2.8.2H265z"/><circle class="st1" cx="137.4" cy="64.3" r="64.3"/><path class="st2" d="M139.5 79c-1.4 5.3-3 8.1-3.9 9.9-3.5-1.5-6.9-3.3-10.1-5.3 1.3-2.8 4.7-9.6 4.7-20 0-8.3-2.7-15.5-4.7-19.5 3.1-1.9 6.5-3.6 10.2-5.1 1.1 2.1 2.7 5.4 3.9 9.9 3.7-7.6 8.9-15.3 20.5-20.3-28 2-50.4 18.3-61.9 35.3 10.2 15.8 33.1 33.8 61.9 35.8-5.3-1.9-16.3-9.3-20.6-20.7zm-36-15.3c5-6.4 10.9-12.2 18.2-17.1 1.6 3.3 4.1 9.7 4.1 17.2 0 10.8-4 17.3-4 17.4l.4.3c-7.4-5-13.7-11-18.7-17.8z"/><circle class="st2" cx="115.2" cy="63.8" r="3.7"/><path class="st2" d="M166.4 49v-9.1c-1.2 1.4-3 3.1-4.5 4.4-5.2 4.3-12.4 8-21.2 8.7 0 0 1.8 5.7 1.8 10.8 0 5.2-1.8 10.8-1.8 10.8 8.8.7 16 4.5 21.2 8.7 1.5 1.3 3.3 3 4.5 4.4v-9.1c-.5-.3-1-.7-1.3-.9-4.2-2.8-13.6-6.4-17.3-7.1.2-1 .4-4 .4-4.8 3.5 0 14.1 1.2 18.2 1.8V60c-4.1.6-14.7 1.8-18.2 1.8 0-.8-.2-3.8-.4-4.8 3.7-.7 13.1-4.4 17.3-7.1.3-.3.8-.6 1.3-.9z"/><path class="st0" d="M43.1 222.8v-10.6h1v10.6h-1zm13.1.1c-2.2 0-3.3-1.6-3.4-1.8l.7-.6c.1.2 1.1 1.5 2.7 1.5s2.6-.9 2.6-2.1-1-1.6-1.5-1.8c-.5-.2-1.9-.8-2.3-.9s-1.7-.8-1.7-2.5 1.4-2.8 3.3-2.8 2.9 1.2 3.1 1.5l-.6.7c-.2-.4-1.2-1.3-2.5-1.3s-2.3.7-2.3 1.8 1 1.6 1.5 1.8 1.9.8 2.3.9c.3.2 1.8.8 1.8 2.5s-1.5 3.1-3.7 3.1zm12.4-.1v-10.6h1v9.8H74v.9h-5.4zm20.4 0l-1.1-3H83l-1.1 3h-1l4-10.6H86l4.1 10.6H89zm-3.5-9.7l-2.2 5.9h4.3l-2.1-5.9zm19.9 9.7l-6.2-9.4v9.4h-.9v-10.6h1.2l5.9 8.9v-8.9h.9v10.6h-.9zm17.4-1.3c-.8.8-1.9 1.3-3.5 1.3H116v-10.6h3.3c1.6 0 2.7.5 3.5 1.3s1.5 2.2 1.5 4c0 1.8-.6 3.1-1.5 4zm-.7-7.4c-.8-.8-1.7-1.1-2.8-1.1H117v8.9h2.3c1.1 0 2-.3 2.8-1.1.8-.8 1.2-2 1.2-3.4 0-1.3-.5-2.5-1.2-3.3zm26.8 8.7l-3.1-4.6H144v4.6h-1v-10.6h3.1c2 0 3.4 1.3 3.4 3s-1.4 2.7-2.5 2.9l3.1 4.7h-1.2zm-1.3-9.4c-.5-.3-1-.4-1.8-.4H144v4.3h1.8c.8 0 1.3-.1 1.8-.4.5-.3.9-1 .9-1.8 0-.7-.4-1.3-.9-1.7zm11.2 9.4v-10.6h6.1v.8h-5.1v3.7h4.8v.8h-4.8v4.4h5.3v.9h-6.3zm17.6.1c-2.2 0-3.3-1.6-3.4-1.8l.7-.6c.1.2 1.1 1.5 2.7 1.5s2.6-.9 2.6-2.1-1-1.6-1.5-1.8c-.5-.2-1.9-.8-2.3-.9s-1.7-.8-1.7-2.5 1.4-2.8 3.3-2.8 2.9 1.2 3.1 1.5l-.6.7c-.2-.4-1.2-1.3-2.5-1.3s-2.3.7-2.3 1.8 1 1.6 1.5 1.8 1.9.8 2.3.9c.3.2 1.8.8 1.8 2.5s-1.5 3.1-3.7 3.1zm16.8 0c-3 0-5-2.3-5-5.4 0-3.1 2-5.5 5-5.5s5 2.3 5 5.4c-.1 3.2-2 5.5-5 5.5zm0-10c-2.4 0-3.9 1.9-3.9 4.6s1.6 4.6 3.9 4.6c2.4 0 3.9-1.9 3.9-4.6s-1.6-4.6-3.9-4.6zm19.8 9.9l-3.1-4.6h-1.8v4.6h-1v-10.6h3.1c2 0 3.4 1.3 3.4 3s-1.4 2.7-2.5 2.9l3.1 4.7H213zm-1.3-9.4c-.5-.3-1-.4-1.8-.4h-1.8v4.3h1.8c.8 0 1.3-.1 1.8-.4.5-.3.9-1 .9-1.8 0-.7-.4-1.3-.9-1.7zm14.3-.4v9.8h-1V213h-3.3v-.8h7.7v.8H226z"/></svg>