<svg id="d296b0eb-b414-4060-94ec-ece7a091a43b" data-name="Layer 1" xmlns="http://www.w3.org/2000/svg" viewBox="0 0 472.79 125.22"><defs><style>.\31 8e8e1c6-6391-45a4-99af-7c0e20af6dbf{fill:#003262}.\34 1b64990-6b04-4ab9-8d3b-bef9e33a8e80{fill:#c7911b}</style></defs><title>logo-horizontal</title><path class="18e8e1c6-6391-45a4-99af-7c0e20af6dbf" d="M172 22.27a7.45 7.45 0 0 1 2.42.51 4.4 4.4 0 0 1 1.89 1.46 4.64 4.64 0 0 1 .77 2.86v2.53H173V27.1s-.28-.08-.85-.11-1.56 0-3 0h-2.43v32.6h-5.06V26.94h-5.46c-.57 0-.85.07-.85.11v2.53h-4.13V27.1a4.65 4.65 0 0 1 .77-2.86 4.4 4.4 0 0 1 1.89-1.46 7.49 7.49 0 0 1 2.43-.51q1.31-.06 2.37-.06h10.91q1.15 0 2.41.06zM221.29 54.64q0 .85.11.85h2.53v4.1h-2.53a4.58 4.58 0 0 1-3.4-1.15 5.19 5.19 0 0 1-1.28-3.36h-.13a11.27 11.27 0 0 1-4.26 3.36 13.66 13.66 0 0 1-5.73 1.15 14.15 14.15 0 0 1-5.7-1.15 15 15 0 0 1-4.66-3.14 14.72 14.72 0 0 1-3.15-4.64 14.16 14.16 0 0 1-1.15-5.7V30.14v-3c0-.56-.07-.85-.11-.85h-2.5v-4.1h2.5a4.7 4.7 0 0 1 3 .85 5.06 5.06 0 0 1 1.55 2.08 8.18 8.18 0 0 1 .58 2.59q.08 1.36.08 2.42V45a9.65 9.65 0 0 0 .75 3.78 10.15 10.15 0 0 0 2.06 3.15 10 10 0 0 0 3.06 2.16 8.84 8.84 0 0 0 3.73.8 8.62 8.62 0 0 0 3.7-.82 10.24 10.24 0 0 0 3.06-2.18 10.4 10.4 0 0 0 2.08-3.15 9.41 9.41 0 0 0 .77-3.74V30.14q0-1.06.08-2.42a8.47 8.47 0 0 1 .56-2.59 4.92 4.92 0 0 1 1.54-2.08 4.7 4.7 0 0 1 3-.85h2.53v4.1h-2.53s-.07.28-.1.85 0 1.56 0 3v21.5q-.09 2.15-.04 2.99zM267.3 35.2a12.42 12.42 0 0 1-.62 4 12.77 12.77 0 0 1-4.37 6.16 14.13 14.13 0 0 1-3.36 1.92l2.56 4.38a24 24 0 0 0 1.86 2.78 2.37 2.37 0 0 0 1.79 1.09h2.14v4.1h-2.53a6.83 6.83 0 0 1-2.67-.48 7.65 7.65 0 0 1-2-1.22 9.49 9.49 0 0 1-1.54-1.66q-.67-.93-1.28-1.86l-3.68-6.18h-4.35a6.23 6.23 0 0 1-1.82-.27 5 5 0 0 1-1.66-.88h-.13l.13 2.75v1.86q0 1.06-.08 2.42a8.19 8.19 0 0 1-.58 2.59 5 5 0 0 1-1.57 2.08 4.77 4.77 0 0 1-3 .85H238v-4.1h2.5q.1 0 .14-.85t0-3V30.14v-3c0-.56-.08-.85-.14-.85H238v-4.1h2.5a4.59 4.59 0 0 1 2.16.53 2.82 2.82 0 0 1 1.39 1.58h.13a5 5 0 0 1 2-1.57 5.92 5.92 0 0 1 2.43-.54H254a13.48 13.48 0 0 1 5.17 1 13.1 13.1 0 0 1 7.09 6.88 12.43 12.43 0 0 1 1.04 5.13zM254 43.46a8 8 0 0 0 3.23-.66 8.44 8.44 0 0 0 2.61-1.8 8.23 8.23 0 0 0 1.76-2.62 8.32 8.32 0 0 0 0-6.4 8.24 8.24 0 0 0-1.76-2.62 8.45 8.45 0 0 0-2.62-1.78 8 8 0 0 0-3.23-.66h-5.38a2.36 2.36 0 0 0-1.12.27 3.08 3.08 0 0 0-.9.72 3.53 3.53 0 0 0-.61 1 3.24 3.24 0 0 0-.22 1.18v10.2a3.12 3.12 0 0 0 .22 1.17 3.58 3.58 0 0 0 .61 1 3.06 3.06 0 0 0 .9.72 2.35 2.35 0 0 0 1.12.27zM310.52 27.15v28.01c0 .25.05.37.1.37h2.53v4.1h-2.53a5.14 5.14 0 0 1-2.88-.7 7.66 7.66 0 0 1-1.82-1.7l-14.43-19.98-2.69-4.32h-.13l.16 3.55v15.68q0 1.06-.06 2.35a7.35 7.35 0 0 1-.53 2.43 4.44 4.44 0 0 1-1.46 1.89 4.65 4.65 0 0 1-2.85.75h-2.56v-4.1h2.56s.08-.28.11-.85 0-1.55 0-3V30.14v-3c0-.56-.07-.85-.11-.85h-2.56v-4.1h2.56a6 6 0 0 1 1.65.21 5.39 5.39 0 0 1 1.28.54 5.24 5.24 0 0 1 1 .78 9 9 0 0 1 .83 1l14.85 20.71 2 3.46h.13l-.1-3.74v-15-2.42a8.39 8.39 0 0 1 .5-2.59 4.78 4.78 0 0 1 1.47-2.08 4.56 4.56 0 0 1 3-.85h2.53v4.1h-2.53s.01.28-.02.84zM352.59 54.53v5.06H326v-4.1h2.53s.08-.28.11-.85 0-1.56 0-3v-21.5-3c0-.56-.08-.85-.14-.85H326v-4.1h2.5a4.37 4.37 0 0 1 2.26.59 7.06 7.06 0 0 1 1.52 1.62 3.39 3.39 0 0 1 .83-1 5 5 0 0 1 1.12-.69 5.93 5.93 0 0 1 1.23-.4 5.83 5.83 0 0 1 1.17-.13h16v5.06h-16a2.27 2.27 0 0 0-1 .26 3.62 3.62 0 0 0-1.6 1.6 2.27 2.27 0 0 0-.26 1V37h16.13v5.06h-16.2v9.57a2.26 2.26 0 0 0 .26 1 3.62 3.62 0 0 0 1.6 1.6 2.26 2.26 0 0 0 1 .26zM390.57 37v5.06h-16.16v9.57q0 1.06-.08 2.42a8.19 8.19 0 0 1-.58 2.59 5.05 5.05 0 0 1-1.55 2.08 4.7 4.7 0 0 1-3 .85h-2.53v-4.1h2.53s.08-.28.11-.85 0-1.56 0-3V30.14v-2.75q0-1.09-.13-1.09h-2.5v-4.1h2.5a4.94 4.94 0 0 1 2.24.51 2.64 2.64 0 0 1 1.38 1.66h.13a3.78 3.78 0 0 1 2-1.7 6.68 6.68 0 0 1 2.4-.48h16v5.06h-16a2.28 2.28 0 0 0-1 .24 3.52 3.52 0 0 0-.91.64 3.42 3.42 0 0 0-.67.9 2.47 2.47 0 0 0-.29 1v7zM430.32 37v5.06h-16.16v9.57q0 1.06-.08 2.42a8.19 8.19 0 0 1-.58 2.59 5.05 5.05 0 0 1-1.5 2.1 4.7 4.7 0 0 1-3 .85h-2.53v-4.1H409s.08-.28.11-.85 0-1.56 0-3v-21.5-2.75q0-1.09-.13-1.09h-2.5v-4.1h2.5a4.94 4.94 0 0 1 2.24.51 2.64 2.64 0 0 1 1.38 1.66h.13a3.78 3.78 0 0 1 2-1.7 6.68 6.68 0 0 1 2.4-.48h16v5.06H417a2.28 2.28 0 0 0-1 .24 3.52 3.52 0 0 0-.91.64 3.42 3.42 0 0 0-.67.9 2.47 2.47 0 0 0-.29 1v7zM472.79 54.53v5.06h-26.63v-4.1h2.53s.08-.28.11-.85 0-1.56 0-3v-21.5-3c0-.56-.08-.85-.14-.85h-2.5v-4.1h2.5a4.37 4.37 0 0 1 2.26.59 3.11 3.11 0 0 1 1.39 1.62h.13a3.39 3.39 0 0 1 .83-1 5 5 0 0 1 1.12-.69 5.93 5.93 0 0 1 1.23-.4 5.83 5.83 0 0 1 1.17-.13h16v5.06h-16a2.27 2.27 0 0 0-1 .26 3.62 3.62 0 0 0-1.6 1.6 2.27 2.27 0 0 0-.26 1V37h16.17v5.06h-16.19v9.57a2.26 2.26 0 0 0 .26 1 3.62 3.62 0 0 0 1.6 1.6 2.26 2.26 0 0 0 1 .26z"/><circle class="18e8e1c6-6391-45a4-99af-7c0e20af6dbf" cx="62.61" cy="62.61" r="62.61"/><path class="41b64990-6b04-4ab9-8d3b-bef9e33a8e80" d="M64.63 76.94a38.49 38.49 0 0 1-3.83 9.67 81.85 81.85 0 0 1-9.8-5.13A42.65 42.65 0 0 0 55.61 62a45.46 45.46 0 0 0-4.54-19A86 86 0 0 1 61 38a47.1 47.1 0 0 1 3.75 9.64c3.6-7.42 8.63-14.92 20-19.8-27.24 2-49.06 17.78-60.22 34.35C34.42 77.53 56.74 95 84.72 97c-5.22-1.77-15.87-9-20.09-20.06zM29.54 62a74.62 74.62 0 0 1 17.69-16.61 39.49 39.49 0 0 1 4 16.71c0 10.48-3.88 16.83-3.94 16.92l.36.27A76.5 76.5 0 0 1 29.54 62z"/><circle class="41b64990-6b04-4ab9-8d3b-bef9e33a8e80" cx="41.02" cy="62.1" r="3.62"/><path class="41b64990-6b04-4ab9-8d3b-bef9e33a8e80" d="M90.83 47.67v-8.86a33.94 33.94 0 0 1-4.38 4.27 37.61 37.61 0 0 1-20.62 8.49 41 41 0 0 1 1.78 10.53 41 41 0 0 1-1.78 10.53 37.61 37.61 0 0 1 20.62 8.49 33.94 33.94 0 0 1 4.38 4.27v-8.87c-.46-.32-.93-.64-1.28-.88-4-2.71-13.21-6.27-16.81-7a37.12 37.12 0 0 0 .38-4.64c3.42 0 13.69 1.16 17.71 1.79v-7.41c-4 .63-14.3 1.79-17.71 1.79a37.12 37.12 0 0 0-.38-4.67c3.6-.68 12.77-4.24 16.81-7z"/><path class="18e8e1c6-6391-45a4-99af-7c0e20af6dbf" d="M203.58 97.39V84.52h1.22v12.87zM219.44 97.58a4.9 4.9 0 0 1-4.12-2.13l.83-.75a4.26 4.26 0 0 0 3.32 1.84c2 0 3.1-1.07 3.1-2.49a2.53 2.53 0 0 0-1.87-2.23c-.63-.28-2.33-.93-2.74-1.12a3.31 3.31 0 0 1-2.11-3c0-2.07 1.72-3.35 4-3.35a4.65 4.65 0 0 1 3.77 1.84l-.75.79a3.92 3.92 0 0 0-3-1.62c-1.62 0-2.8.81-2.8 2.23a2.53 2.53 0 0 0 1.87 2.23c.63.28 2.33.93 2.74 1.12a3.35 3.35 0 0 1 2.13 3c-.05 2.06-1.68 3.64-4.37 3.64zM234.53 97.39V84.52h1.22v11.84h5.37v1zM259.27 97.39l-1.27-3.6h-6l-1.32 3.61h-1.22l4.91-12.87h1.32l4.93 12.87zM255 85.64l-2.64 7.14h5.25zM279.15 97.39L271.65 86v11.39h-1.12V84.52H272l7.16 10.85V84.52h1.12v12.87zM300.34 95.77a5.65 5.65 0 0 1-4.26 1.62H292V84.52h4.05a5.64 5.64 0 0 1 4.26 1.62 7.26 7.26 0 0 1 0 9.63zm-.91-8.92a4.51 4.51 0 0 0-3.35-1.32h-2.84v10.85h2.84a4.51 4.51 0 0 0 3.35-1.32 6.43 6.43 0 0 0 0-8.21zM332 97.39l-3.71-5.58H326v5.58h-1.22V84.52h3.75c2.43 0 4.12 1.52 4.12 3.65a3.64 3.64 0 0 1-3.06 3.55l3.81 5.68zM330.4 86a3.65 3.65 0 0 0-2.23-.51H326v5.27h2.13a3.65 3.65 0 0 0 2.23-.51 2.65 2.65 0 0 0 0-4.26zM344 97.39V84.52h7.4v1h-6.18V90H351v1h-5.78v5.35h6.39v1zM365.33 97.58a4.9 4.9 0 0 1-4.12-2.13l.83-.75a4.26 4.26 0 0 0 3.32 1.84c2 0 3.1-1.07 3.1-2.49a2.53 2.53 0 0 0-1.87-2.23c-.63-.28-2.33-.93-2.74-1.12a3.31 3.31 0 0 1-2.11-3c0-2.07 1.72-3.35 4-3.35a4.65 4.65 0 0 1 3.77 1.84l-.75.79a3.92 3.92 0 0 0-3-1.62c-1.62 0-2.8.81-2.8 2.23a2.53 2.53 0 0 0 1.87 2.23c.63.28 2.33.93 2.74 1.12a3.35 3.35 0 0 1 2.13 3c-.05 2.06-1.7 3.64-4.37 3.64zM385.65 97.58c-3.65 0-6-2.82-6-6.61s2.37-6.63 6-6.63 6 2.82 6 6.61-2.35 6.63-6 6.63zm0-12.16c-2.9 0-4.78 2.29-4.78 5.53s1.89 5.53 4.76 5.53 4.78-2.29 4.78-5.53-1.88-5.54-4.76-5.54zM409.78 97.39l-3.71-5.58h-2.23v5.58h-1.22V84.52h3.75c2.43 0 4.12 1.52 4.12 3.65a3.64 3.64 0 0 1-3.06 3.55l3.81 5.68zM408.2 86a3.65 3.65 0 0 0-2.23-.51h-2.13v5.27H406a3.65 3.65 0 0 0 2.23-.51 2.65 2.65 0 0 0 0-4.26zM425.44 85.53v11.86h-1.22V85.53h-4.05v-1h9.33v1z"/></svg>